<?xml version="1.0" encoding="UTF-8" standalone="no"?>
<!-- Uploaded to: SVG Repo, www.svgrepo.com, Generator: SVG Repo Mixer Tools -->

<svg
   width="800px"
   height="800px"
   viewBox="0 0 512 512"
   version="1.1"
   id="svg4"
   sodipodi:docname="mic_off.svg"
   inkscape:version="1.4 (86a8ad7, 2024-10-11)"
   xmlns:inkscape="http://www.inkscape.org/namespaces/inkscape"
   xmlns:sodipodi="http://sodipodi.sourceforge.net/DTD/sodipodi-0.dtd"
   xmlns="http://www.w3.org/2000/svg"
   xmlns:svg="http://www.w3.org/2000/svg">
  <defs
     id="defs4" />
  <sodipodi:namedview
     id="namedview4"
     pagecolor="#ffffff"
     bordercolor="#000000"
     borderopacity="0.25"
     inkscape:showpageshadow="2"
     inkscape:pageopacity="0.0"
     inkscape:pagecheckerboard="0"
     inkscape:deskcolor="#d1d1d1"
     inkscape:zoom="1.00875"
     inkscape:cx="399.50434"
     inkscape:cy="400"
     inkscape:window-width="1920"
     inkscape:window-height="1009"
     inkscape:window-x="-8"
     inkscape:window-y="-8"
     inkscape:window-maximized="1"
     inkscape:current-layer="svg4" />
  <title
     id="title1">ionicons-v5-g</title>
  <line
     x1="432"
     y1="400"
     x2="96"
     y2="64"
     style="fill:none;stroke:#e60000;stroke-linecap:round;stroke-miterlimit:10;stroke-width:32px;stroke-opacity:1"
     id="line1" />
  <path
     d="M400,240V208.45c0-8.61-6.62-16-15.23-16.43A16,16,0,0,0,368,208v32a111.68,111.68,0,0,1-2.68,24.38,2,2,0,0,0,.53,1.84l22.59,22.59a2,2,0,0,0,3.29-.72A143.27,143.27,0,0,0,400,240Z"
     id="path1"
     style="stroke:#e60000;stroke-opacity:1;fill:#e60000;fill-opacity:1" />
  <path
     d="M256,352A112.36,112.36,0,0,1,144,240V208.45c0-8.61-6.62-16-15.23-16.43A16,16,0,0,0,112,208v32c0,74,56.1,135.12,128,143.11V432H192.45c-8.61,0-16,6.62-16.43,15.23A16,16,0,0,0,192,464H319.55c8.61,0,16-6.62,16.43-15.23A16,16,0,0,0,320,432H272V383.11a143.08,143.08,0,0,0,52-16.22,4,4,0,0,0,.91-6.35l-18.4-18.39a3,3,0,0,0-3.41-.58A111,111,0,0,1,256,352Z"
     id="path2"
     style="stroke:#e60000;stroke-opacity:1;fill:#e60000;fill-opacity:1" />
  <path
     d="M257.14,48a79.66,79.66,0,0,0-68.47,36.57,4,4,0,0,0,.54,5L332.59,233a2,2,0,0,0,3.41-1.42V128.91C336,85,301,48.6,257.14,48Z"
     id="path3"
     style="stroke:#e60000;stroke-opacity:1;fill:#e60000;fill-opacity:1" />
  <path
     d="M179.41,215a2,2,0,0,0-3.41,1.42V239a80.89,80.89,0,0,0,23.45,56.9,78.55,78.55,0,0,0,77.8,21.19,2,2,0,0,0,.86-3.35Z"
     id="path4"
     style="stroke:#e60000;stroke-opacity:1;fill:#e60000;fill-opacity:1" />
</svg>
